<svg width="20" height="20" viewBox="0 0 20 20" fill="none" xmlns="http://www.w3.org/2000/svg">
<path fill-rule="evenodd" clip-rule="evenodd" d="M10.5893 0.429896C10.2382 0.173758 9.76181 0.173759 9.41067 0.429896L7.63756 1.72331C7.46589 1.84853 7.25881 1.91581 7.04633 1.91541L4.8516 1.91123C4.41697 1.9104 4.03157 2.19041 3.89805 2.60402L3.22382 4.69262C3.15854 4.89483 3.03056 5.07099 2.85842 5.19555L1.08039 6.4822C0.728282 6.737 0.581073 7.19006 0.716168 7.60316L1.39835 9.68918C1.46439 9.89114 1.46439 10.1089 1.39835 10.3108L0.716168 12.3969C0.581073 12.81 0.728282 13.263 1.08039 13.5178L2.85842 14.8045C3.03056 14.929 3.15854 15.1052 3.22382 15.3074L3.89805 17.396C4.03157 17.8096 4.41697 18.0896 4.8516 18.0888L7.04633 18.0846C7.25881 18.0842 7.46589 18.1515 7.63756 18.2767L9.41067 19.5701C9.76181 19.8263 10.2382 19.8263 10.5893 19.5701L12.3624 18.2767C12.5341 18.1515 12.7412 18.0842 12.9537 18.0846L15.1484 18.0888C15.583 18.0896 15.9684 17.8096 16.1019 17.396L16.7762 15.3074C16.8415 15.1052 16.9694 14.929 17.1416 14.8045L18.9196 13.5178C19.2717 13.263 19.4189 12.81 19.2838 12.3969L18.6016 10.3108C18.5356 10.1089 18.5356 9.89114 18.6016 9.68918L19.2838 7.60316C19.4189 7.19006 19.2717 6.737 18.9196 6.4822L17.1416 5.19555C16.9694 5.07099 16.8415 4.89483 16.7762 4.69262L16.1019 2.60402C15.9684 2.19041 15.583 1.9104 15.1484 1.91123L12.9537 1.91541C12.7412 1.91581 12.5341 1.84853 12.3624 1.72331L10.5893 0.429896ZM10.4777 6.54592C10.3325 6.07608 9.66748 6.07608 9.52229 6.54591L8.92855 8.46729C8.86381 8.6768 8.67012 8.81967 8.45084 8.81967H6.47815C5.99988 8.81967 5.79456 9.42666 6.17461 9.717L7.81302 10.9686C7.97953 11.0958 8.04906 11.3134 7.9872 11.5136L7.37168 13.5054C7.22796 13.9705 7.76608 14.3459 8.15292 14.0504L9.69647 12.8712C9.87567 12.7343 10.1243 12.7343 10.3035 12.8712L11.8471 14.0504C12.2339 14.3459 12.772 13.9705 12.6283 13.5054L12.0128 11.5136C11.9509 11.3134 12.0205 11.0958 12.187 10.9686L13.8254 9.717C14.2054 9.42666 14.0001 8.81967 13.5218 8.81967H11.5492C11.3299 8.81967 11.1362 8.6768 11.0714 8.46729L10.4777 6.54592Z" fill="white"/>
</svg>
