<svg width="19" height="18" viewBox="0 0 19 18" fill="none" xmlns="http://www.w3.org/2000/svg">
<path fill-rule="evenodd" clip-rule="evenodd" d="M2.3335 0C1.22893 0 0.333496 0.89543 0.333496 2V16C0.333496 17.1046 1.22893 18 2.3335 18H16.3335C17.4381 18 18.3335 17.1046 18.3335 16V2C18.3335 0.895431 17.4381 0 16.3335 0H2.3335ZM2.33349 4C2.33349 3.44771 2.78121 3 3.33349 3H15.3335C15.8858 3 16.3335 3.44771 16.3335 4V10C16.3335 10.5523 15.8858 11 15.3335 11H3.33349C2.78121 11 2.33349 10.5523 2.33349 10V4ZM2.33349 14C2.33349 13.4477 2.78121 13 3.33349 13H15.3335C15.8858 13 16.3335 13.4477 16.3335 14C16.3335 14.5523 15.8858 15 15.3335 15H3.33349C2.78121 15 2.33349 14.5523 2.33349 14Z" fill="#132339"/>
</svg>
