<svg width="32" height="32" viewBox="0 0 32 32" fill="none" xmlns="http://www.w3.org/2000/svg">
<g clip-path="url(#clip0_1483_3956)">
<circle cx="16" cy="16" r="16" fill="#B7BEC8"/>
<path d="M5.21378 22V10.3636H9.1456C10.0585 10.3636 10.8047 10.5284 11.3842 10.858C11.9676 11.1837 12.3994 11.625 12.6797 12.1818C12.96 12.7386 13.1001 13.3598 13.1001 14.0455C13.1001 14.7311 12.96 15.3542 12.6797 15.9148C12.4032 16.4754 11.9751 16.9223 11.3956 17.2557C10.8161 17.5852 10.0736 17.75 9.16832 17.75H6.35014V16.5H9.12287C9.74787 16.5 10.2498 16.392 10.6286 16.1761C11.0073 15.9602 11.282 15.6686 11.4524 15.3011C11.6267 14.9299 11.7138 14.5114 11.7138 14.0455C11.7138 13.5795 11.6267 13.1629 11.4524 12.7955C11.282 12.428 11.0054 12.1402 10.6229 11.9318C10.2403 11.7197 9.73272 11.6136 9.10014 11.6136H6.62287V22H5.21378ZM15.37 10.3636H17.0518L21.0064 20.0227H21.1428L25.0973 10.3636H26.7791V22H25.4609V13.1591H25.3473L21.7109 22H20.4382L16.8018 13.1591H16.6882V22H15.37V10.3636Z" fill="white"/>
</g>
<defs>
<clipPath id="clip0_1483_3956">
<rect width="32" height="32" fill="white"/>
</clipPath>
</defs>
</svg>
