<svg width="14" height="14" viewBox="0 0 14 14" fill="none" xmlns="http://www.w3.org/2000/svg">
<path fill-rule="evenodd" clip-rule="evenodd" d="M3 5C2.52038 5 2.21074 4.99946 1.97376 4.98329C1.74576 4.96773 1.65893 4.94112 1.61732 4.92388C1.37229 4.82239 1.17761 4.62771 1.07612 4.38268C1.05888 4.34107 1.03227 4.25424 1.01671 4.02624C1.00054 3.78926 1 3.47962 1 3C1 2.52038 1.00054 2.21074 1.01671 1.97376C1.03227 1.74576 1.05888 1.65893 1.07612 1.61732C1.17761 1.37229 1.37229 1.17761 1.61732 1.07612C1.65893 1.05888 1.74576 1.03227 1.97376 1.01671C2.21074 1.00054 2.52038 1 3 1C3.47962 1 3.78926 1.00054 4.02624 1.01671C4.25424 1.03227 4.34107 1.05888 4.38268 1.07612C4.62771 1.17761 4.82239 1.37229 4.92388 1.61732C4.94112 1.65893 4.96773 1.74576 4.98329 1.97376C4.99946 2.21074 5 2.52038 5 3C5 3.47962 4.99946 3.78926 4.98329 4.02624C4.96773 4.25424 4.94112 4.34107 4.92388 4.38268C4.82239 4.62771 4.62771 4.82239 4.38268 4.92388C4.34107 4.94112 4.25424 4.96773 4.02624 4.98329C3.78926 4.99946 3.47962 5 3 5ZM0 3C0 2.06812 0 1.60218 0.152241 1.23463C0.355229 0.744577 0.744577 0.355229 1.23463 0.152241C1.60218 0 2.06812 0 3 0C3.93188 0 4.39782 0 4.76537 0.152241C5.25542 0.355229 5.64477 0.744577 5.84776 1.23463C6 1.60218 6 2.06812 6 3C6 3.93188 6 4.39782 5.84776 4.76537C5.64477 5.25542 5.25542 5.64477 4.76537 5.84776C4.39782 6 3.93188 6 3 6C2.06812 6 1.60218 6 1.23463 5.84776C0.744577 5.64477 0.355229 5.25542 0.152241 4.76537C0 4.39782 0 3.93188 0 3ZM0.152241 9.23463C0 9.60217 0 10.0681 0 11C0 11.9319 0 12.3978 0.152241 12.7654C0.355229 13.2554 0.744577 13.6448 1.23463 13.8478C1.60218 14 2.06812 14 3 14C3.93188 14 4.39782 14 4.76537 13.8478C5.25542 13.6448 5.64477 13.2554 5.84776 12.7654C6 12.3978 6 11.9319 6 11C6 10.0681 6 9.60217 5.84776 9.23463C5.64477 8.74458 5.25542 8.35523 4.76537 8.15224C4.39782 8 3.93188 8 3 8C2.06812 8 1.60218 8 1.23463 8.15224C0.744577 8.35523 0.355229 8.74458 0.152241 9.23463ZM8 3C8 2.06812 8 1.60218 8.15224 1.23463C8.35523 0.744577 8.74458 0.355229 9.23463 0.152241C9.60217 0 10.0681 0 11 0C11.9319 0 12.3978 0 12.7654 0.152241C13.2554 0.355229 13.6448 0.744577 13.8478 1.23463C14 1.60218 14 2.06812 14 3C14 3.93188 14 4.39782 13.8478 4.76537C13.6448 5.25542 13.2554 5.64477 12.7654 5.84776C12.3978 6 11.9319 6 11 6C10.0681 6 9.60217 6 9.23463 5.84776C8.74458 5.64477 8.35523 5.25542 8.15224 4.76537C8 4.39782 8 3.93188 8 3ZM8.15224 9.23463C8 9.60217 8 10.0681 8 11C8 11.9319 8 12.3978 8.15224 12.7654C8.35523 13.2554 8.74458 13.6448 9.23463 13.8478C9.60217 14 10.0681 14 11 14C11.9319 14 12.3978 14 12.7654 13.8478C13.2554 13.6448 13.6448 13.2554 13.8478 12.7654C14 12.3978 14 11.9319 14 11C14 10.0681 14 9.60217 13.8478 9.23463C13.6448 8.74458 13.2554 8.35523 12.7654 8.15224C12.3978 8 11.9319 8 11 8C10.0681 8 9.60217 8 9.23463 8.15224C8.74458 8.35523 8.35523 8.74458 8.15224 9.23463Z" fill="#132339"/>
</svg>
