<svg width="24" height="24" viewBox="0 0 24 24" fill="none" xmlns="http://www.w3.org/2000/svg">
<rect width="24" height="24" rx="12" fill="#B7BEC8"/>
<path d="M12 20.3333C12.9166 20.3333 13.6666 19.5833 13.6666 18.6666H10.3333C10.3333 19.5833 11.075 20.3333 12 20.3333ZM17 15.3333V11.1666C17 8.60825 15.6333 6.46659 13.25 5.89992V5.33325C13.25 4.64159 12.6916 4.08325 12 4.08325C11.3083 4.08325 10.75 4.64159 10.75 5.33325V5.89992C8.35831 6.46659 6.99998 8.59992 6.99998 11.1666V15.3333L5.92498 16.4083C5.39998 16.9333 5.76665 17.8333 6.50831 17.8333H17.4833C18.225 17.8333 18.6 16.9333 18.075 16.4083L17 15.3333Z" fill="white"/>
</svg>
